<svg width="20" height="20" viewBox="0 0 20 20" fill="none" xmlns="http://www.w3.org/2000/svg">
<path d="M2.49708 4.99991H18.3303L15.8304 13.3332H4.99707L2.49708 4.99991ZM2.49708 4.99991L1.87209 2.91659M8.32372 9.16656H9.99038M9.99038 9.16656H11.657M9.99038 9.16656V7.4999M9.99038 9.16656V10.8332M9.16372 16.2499C9.16372 16.5814 9.03202 16.8993 8.7976 17.1337C8.56318 17.3682 8.24524 17.4999 7.91372 17.4999C7.58221 17.4999 7.26426 17.3682 7.02984 17.1337C6.79543 16.8993 6.66373 16.5814 6.66373 16.2499M14.1637 16.2499C14.1637 16.5814 14.032 16.8993 13.7976 17.1337C13.5632 17.3682 13.2452 17.4999 12.9137 17.4999C12.5822 17.4999 12.2642 17.3682 12.0298 17.1337C11.7954 16.8993 11.6637 16.5814 11.6637 16.2499" stroke="black" stroke-width="0.827236" stroke-linecap="round" stroke-linejoin="round"/>
</svg>
