<svg width="15" height="16" viewBox="0 0 15 16" fill="none" xmlns="http://www.w3.org/2000/svg">
<path fill-rule="evenodd" clip-rule="evenodd" d="M6.8187 1.36374C3.80601 1.36374 1.36374 3.80601 1.36374 6.8187C1.36374 9.83139 3.80601 12.2737 6.8187 12.2737C9.83139 12.2737 12.2737 9.83139 12.2737 6.8187C12.2737 3.80601 9.83139 1.36374 6.8187 1.36374ZM0 6.8187C0 3.05283 3.05283 0 6.8187 0C10.5846 0 13.6374 3.05283 13.6374 6.8187C13.6374 10.5846 10.5846 13.6374 6.8187 13.6374C3.05283 13.6374 0 10.5846 0 6.8187Z" fill="black"/>
<path fill-rule="evenodd" clip-rule="evenodd" d="M13.1968 11.4007C12.6267 11.3965 12.0984 11.6225 11.7729 12.0744C11.4478 12.5259 11.3996 13.099 11.5782 13.6397L11.5784 13.6403C11.7926 14.2871 12.23 14.8959 12.9431 14.9915C13.656 15.0871 14.238 14.615 14.6142 14.0486L14.6143 14.0485C14.9756 13.5044 15.1533 12.8271 14.8323 12.2277C14.5116 11.6289 13.8503 11.4014 13.1968 11.4007ZM12.873 13.2117C12.9801 13.5347 13.0917 13.618 13.1247 13.6367C13.1613 13.6273 13.2906 13.5765 13.4782 13.2941M12.873 13.2117C12.8063 13.0093 12.8535 12.9075 12.8795 12.8715C12.9046 12.8366 12.9818 12.7626 13.1879 12.7644L13.1879 12.7644H13.1939C13.3825 12.7644 13.5007 12.797 13.5651 12.8268C13.5963 12.8413 13.6131 12.8541 13.6209 12.8612C13.6281 12.8678 13.6299 12.8712 13.6301 12.8715L13.6301 12.8715L13.6301 12.8716C13.6303 12.8719 13.6322 12.8753 13.6336 12.885C13.6352 12.8956 13.6366 12.9168 13.6314 12.9509C13.6205 13.0211 13.5822 13.1375 13.4783 13.294" fill="black"/>
</svg>
