<svg width="19" height="19" viewBox="0 0 19 19" fill="none" xmlns="http://www.w3.org/2000/svg">
<path d="M9.57982 14.6854L9.50065 14.7646L9.41357 14.6854C5.65315 11.2733 3.16732 9.01708 3.16732 6.72917C3.16732 5.14583 4.35482 3.95833 5.93815 3.95833C7.15732 3.95833 8.34482 4.75 8.7644 5.82667H10.2369C10.6565 4.75 11.844 3.95833 13.0632 3.95833C14.6465 3.95833 15.834 5.14583 15.834 6.72917C15.834 9.01708 13.3482 11.2733 9.57982 14.6854ZM13.0632 2.375C11.6857 2.375 10.3636 3.01625 9.50065 4.02167C8.63773 3.01625 7.31565 2.375 5.93815 2.375C3.49982 2.375 1.58398 4.28292 1.58398 6.72917C1.58398 9.71375 4.27565 12.16 8.35273 15.8571L9.50065 16.9021L10.6486 15.8571C14.7256 12.16 17.4173 9.71375 17.4173 6.72917C17.4173 4.28292 15.5015 2.375 13.0632 2.375Z" fill="#A5A5A5"/>
</svg>
