<svg width="15" height="17" viewBox="0 0 15 17" fill="none" xmlns="http://www.w3.org/2000/svg">
<path fill-rule="evenodd" clip-rule="evenodd" d="M10.1921 4.23186C10.1921 2.65675 8.83887 1.39603 7.23581 1.55155L7.23302 1.55182L7.23302 1.55182C5.94188 1.67232 4.80787 2.99857 4.80787 4.37801V5.1241C4.80787 5.5489 4.4635 5.89327 4.0387 5.89327C3.6139 5.89327 3.26953 5.5489 3.26953 5.1241V4.37801C3.26953 2.29662 4.91922 0.223567 7.08866 0.020262C9.60775 -0.223318 11.7304 1.76159 11.7304 4.23186V5.29332C11.7304 5.71812 11.386 6.06249 10.9612 6.06249C10.5364 6.06249 10.1921 5.71812 10.1921 5.29332V4.23186Z" fill="black"/>
<path fill-rule="evenodd" clip-rule="evenodd" d="M0.717614 5.88287C1.45259 5.00906 2.69085 4.60889 4.42331 4.60889H10.5767C12.3092 4.60889 13.5474 5.00906 14.2824 5.88287C15.01 6.74798 15.0668 7.87142 14.9563 8.87009L14.955 8.88089L14.379 13.4893C14.2925 14.2909 14.0865 15.2147 13.329 15.9067C12.5762 16.5944 11.4324 16.9156 9.80751 16.9156H5.19249C3.56764 16.9156 2.42375 16.5944 1.67104 15.9067C0.913526 15.2147 0.707515 14.2909 0.621033 13.4893L0.0449769 8.88089L0.0437036 8.87009C-0.0668046 7.87142 -0.0100449 6.74798 0.717614 5.88287ZM1.57213 8.69563L2.14832 13.3051L2.14988 13.3186C2.22536 14.0231 2.37801 14.4689 2.70863 14.771C3.04621 15.0794 3.72527 15.3773 5.19249 15.3773H9.80751C11.2747 15.3773 11.9538 15.0794 12.2914 14.771C12.622 14.4689 12.7746 14.0231 12.8501 13.3186L12.8517 13.3051L13.4279 8.69569C13.524 7.82049 13.4152 7.24178 13.1051 6.87309C12.8017 6.51238 12.1286 6.14723 10.5767 6.14723H4.42331C2.87142 6.14723 2.19828 6.51238 1.89488 6.87309C1.58478 7.24177 1.47598 7.82046 1.57213 8.69563Z" fill="black"/>
<path fill-rule="evenodd" clip-rule="evenodd" d="M9.41992 8.45472C9.41992 8.02992 9.76429 7.68555 10.1891 7.68555H10.196C10.6208 7.68555 10.9652 8.02992 10.9652 8.45472C10.9652 8.87952 10.6208 9.22389 10.196 9.22389H10.1891C9.76429 9.22389 9.41992 8.87952 9.41992 8.45472Z" fill="black"/>
<path fill-rule="evenodd" clip-rule="evenodd" d="M4.03418 8.45472C4.03418 8.02992 4.37855 7.68555 4.80335 7.68555H4.81026C5.23506 7.68555 5.57943 8.02992 5.57943 8.45472C5.57943 8.87952 5.23506 9.22389 4.81026 9.22389H4.80335C4.37855 9.22389 4.03418 8.87952 4.03418 8.45472Z" fill="black"/>
</svg>
