<svg width="24" height="24" viewBox="0 0 24 24" fill="none" xmlns="http://www.w3.org/2000/svg">
<path d="M18.002 21.5C17.3087 21.5 16.7183 21.2567 16.231 20.77C15.7437 20.2847 15.5 19.6947 15.5 19C15.5 18.8667 15.5117 18.729 15.535 18.587C15.5577 18.4443 15.592 18.3103 15.638 18.185L7.896 13.623C7.65133 13.899 7.36667 14.114 7.042 14.268C6.718 14.4227 6.37067 14.5 6 14.5C5.30533 14.5 4.71533 14.2573 4.23 13.772C3.74333 13.286 3.5 12.696 3.5 12.002C3.5 11.3087 3.74333 10.7183 4.23 10.231C4.71467 9.74367 5.30467 9.5 6 9.5C6.37067 9.5 6.718 9.57733 7.042 9.732C7.36667 9.886 7.65133 10.101 7.896 10.377L15.638 5.815C15.592 5.68967 15.5577 5.55567 15.535 5.413C15.5117 5.271 15.5 5.13333 15.5 5C15.5 4.30533 15.743 3.71533 16.229 3.23C16.7143 2.74333 17.304 2.5 17.998 2.5C18.6913 2.5 19.2817 2.743 19.769 3.229C20.2563 3.71433 20.5 4.304 20.5 4.998C20.5 5.69133 20.2567 6.28167 19.77 6.769C19.2847 7.25633 18.6947 7.5 18 7.5C17.6293 7.5 17.282 7.42267 16.958 7.268C16.6333 7.114 16.3487 6.899 16.104 6.623L8.362 11.185C8.408 11.3103 8.44233 11.4437 8.465 11.585C8.48833 11.727 8.5 11.864 8.5 11.996C8.5 12.128 8.48833 12.2663 8.465 12.411C8.44233 12.555 8.408 12.6897 8.362 12.815L16.104 17.377C16.3487 17.101 16.6333 16.886 16.958 16.732C17.282 16.5773 17.6293 16.5 18 16.5C18.6947 16.5 19.2847 16.743 19.77 17.229C20.2567 17.7143 20.5 18.304 20.5 18.998C20.5 19.6913 20.2573 20.2817 19.772 20.769C19.286 21.2563 18.696 21.5 18.002 21.5ZM18 6.5C18.4113 6.5 18.7643 6.353 19.059 6.059C19.353 5.76433 19.5 5.41133 19.5 5C19.5 4.58867 19.353 4.23567 19.059 3.941C18.7643 3.647 18.4113 3.5 18 3.5C17.5887 3.5 17.2357 3.647 16.941 3.941C16.647 4.23567 16.5 4.58867 16.5 5C16.5 5.41133 16.647 5.76433 16.941 6.059C17.2357 6.353 17.5887 6.5 18 6.5ZM6 13.5C6.41133 13.5 6.76433 13.353 7.059 13.059C7.353 12.7643 7.5 12.4113 7.5 12C7.5 11.5887 7.353 11.2357 7.059 10.941C6.76433 10.647 6.41133 10.5 6 10.5C5.58867 10.5 5.23567 10.647 4.941 10.941C4.647 11.2357 4.5 11.5887 4.5 12C4.5 12.4113 4.647 12.7643 4.941 13.059C5.23567 13.353 5.58867 13.5 6 13.5ZM18 20.5C18.4113 20.5 18.7643 20.353 19.059 20.059C19.353 19.7643 19.5 19.4113 19.5 19C19.5 18.5887 19.353 18.2357 19.059 17.941C18.7643 17.647 18.4113 17.5 18 17.5C17.5887 17.5 17.2357 17.647 16.941 17.941C16.647 18.2357 16.5 18.5887 16.5 19C16.5 19.4113 16.647 19.7643 16.941 20.059C17.2357 20.353 17.5887 20.5 18 20.5Z" fill="#A5A5A5"/>
</svg>
