<svg width="15" height="15" viewBox="0 0 15 15" fill="none" xmlns="http://www.w3.org/2000/svg">
<path d="M9.95843 7.8395L4.73375 12.8176C4.64658 12.9007 4.53076 12.9471 4.41032 12.9471C4.28988 12.9471 4.17406 12.9007 4.08688 12.8176L4.08125 12.812C4.03885 12.7717 4.00508 12.7232 3.982 12.6695C3.95893 12.6157 3.94703 12.5578 3.94703 12.4993C3.94703 12.4408 3.95893 12.383 3.982 12.3292C4.00508 12.2755 4.03885 12.227 4.08125 12.1867L9.00125 7.49918L4.08125 2.81357C4.03885 2.77328 4.00508 2.72479 3.982 2.67104C3.95893 2.61729 3.94703 2.55941 3.94703 2.50091C3.94703 2.44242 3.95893 2.38454 3.982 2.33079C4.00508 2.27704 4.03885 2.22854 4.08125 2.18826L4.08688 2.18263C4.17406 2.09953 4.28988 2.05317 4.41032 2.05317C4.53076 2.05317 4.64658 2.09953 4.73375 2.18263L9.95843 7.16075C10.0044 7.20453 10.041 7.25718 10.066 7.31552C10.091 7.37385 10.1038 7.43666 10.1038 7.50012C10.1038 7.56359 10.091 7.62639 10.066 7.68473C10.041 7.74307 10.0044 7.79572 9.95843 7.8395Z" fill="black"/>
</svg>
