<svg width="17" height="17" viewBox="0 0 17 17" fill="none" xmlns="http://www.w3.org/2000/svg">
<path d="M2.1228 3.5419H14.8728C15.0019 3.5423 15.1284 3.5779 15.2388 3.64487C15.3491 3.71184 15.4391 3.80764 15.4991 3.92196C15.5591 4.03627 15.5867 4.16478 15.5791 4.29364C15.5714 4.4225 15.5288 4.54684 15.4558 4.65327L9.08076 13.8616C8.81655 14.2434 8.18047 14.2434 7.91555 13.8616L1.54055 4.65327C1.46676 4.54706 1.42349 4.42266 1.41544 4.29358C1.40738 4.16451 1.43486 4.03569 1.49487 3.92113C1.55489 3.80657 1.64516 3.71065 1.75586 3.6438C1.86656 3.57693 1.99347 3.54169 2.1228 3.5419Z" fill="black"/>
</svg>
