<svg width="15" height="15" viewBox="0 0 15 15" fill="none" xmlns="http://www.w3.org/2000/svg">
<path fill-rule="evenodd" clip-rule="evenodd" d="M6.8187 1.36374C3.80601 1.36374 1.36374 3.80601 1.36374 6.8187C1.36374 9.83139 3.80601 12.2737 6.8187 12.2737C9.83139 12.2737 12.2737 9.83139 12.2737 6.8187C12.2737 3.80601 9.83139 1.36374 6.8187 1.36374ZM0 6.8187C0 3.05283 3.05283 0 6.8187 0C10.5846 0 13.6374 3.05283 13.6374 6.8187C13.6374 10.5846 10.5846 13.6374 6.8187 13.6374C3.05283 13.6374 0 10.5846 0 6.8187Z" fill="black"/>
<path fill-rule="evenodd" clip-rule="evenodd" d="M13.197 11.4007C12.627 11.3965 12.0987 11.6225 11.7732 12.0744C11.448 12.5259 11.3999 13.099 11.5784 13.6397L11.5786 13.6403C11.7929 14.2871 12.2303 14.8959 12.9433 14.9915C13.6563 15.0871 14.2382 14.615 14.6145 14.0486L14.6145 14.0485C14.9758 13.5044 15.1535 12.8271 14.8326 12.2277C14.5119 11.6289 13.8506 11.4014 13.197 11.4007ZM12.8733 13.2117C12.9803 13.5347 13.0919 13.618 13.1249 13.6367C13.1615 13.6273 13.2908 13.5765 13.4785 13.2941M12.8733 13.2117C12.8065 13.0093 12.8538 12.9075 12.8798 12.8715C12.9048 12.8366 12.9821 12.7626 13.1882 12.7644L13.1882 12.7644H13.1941C13.3827 12.7644 13.5009 12.797 13.5653 12.8268C13.5965 12.8413 13.6133 12.8541 13.6212 12.8612C13.6284 12.8678 13.6302 12.8712 13.6303 12.8715L13.6303 12.8715L13.6303 12.8716C13.6305 12.8719 13.6324 12.8753 13.6339 12.885C13.6354 12.8956 13.6368 12.9168 13.6316 12.9509C13.6208 13.0211 13.5825 13.1375 13.4785 13.294" fill="black"/>
</svg>
